<svg width="70" height="70" viewBox="0 0 70 70" fill="none" xmlns="http://www.w3.org/2000/svg">
<g clip-path="url(#clip0)">
<path d="M5.19711 2.57812C4.36663 3.67348 3.9043 5.02091 3.9043 6.46286V63.5366C3.9043 64.876 4.30455 66.1342 5.02748 67.1852L36.1426 34.7936L5.19711 2.57812Z" fill="white"/>
<path d="M38.9915 31.8267L49.0857 21.3186L13.6035 0.873272C12.0635 -0.014332 10.2966 -0.224751 8.64795 0.237743L38.9915 31.8267Z" fill="white"/>
<path d="M38.9915 37.7588L8.34131 69.6666C9.00216 69.8882 9.68602 69.9999 10.3704 69.9999C11.4808 69.9999 12.5916 69.7083 13.6035 69.1251L49.3409 48.5323L38.9915 37.7588Z" fill="white"/>
<path d="M63.1272 29.4108L52.7537 23.4331L41.8408 34.7931L53.0084 46.4195L63.1272 40.5886C65.152 39.4223 66.3608 37.3325 66.3608 34.9997C66.3608 32.6664 65.152 30.5772 63.1272 29.4108Z" fill="white"/>
</g>
<defs>
<clipPath id="clip0">
<rect width="70" height="70" fill="white"/>
</clipPath>
</defs>
</svg>
