<svg width="571" height="314" viewBox="0 0 571 314" fill="none" xmlns="http://www.w3.org/2000/svg">
<g clip-path="url(#clip0)">
<path d="M284.451 77.4909L284.436 77.5979L284.396 77.9072L280.197 110.236L254.484 120.357L254.082 120.151L239.686 112.816L232.243 82.1744L231.732 80.0709L231.888 80.007L263.733 67.1709L284.432 77.4786L284.451 77.4909Z" fill="white"/>
<path d="M254.082 120.151L239.686 112.816L231.732 80.0713L231.888 80.0073L252.635 89.3983L254.082 120.151Z" fill="white"/>
<path opacity="0.2" d="M254.443 119.777L243.493 97.2643L244.899 90.8819L238.276 82.5142L237.712 83.0282L244.093 91.0898L239.326 112.725L240.047 112.908L243.233 98.4455L253.787 120.144L254.443 119.777Z" fill="white"/>
<path d="M284.451 77.8875L284.396 77.9072L252.635 89.7951L232.243 82.1744L231.732 80.0709L231.888 80.0069L263.733 67.1709L284.432 77.4786L284.436 77.5979L284.451 77.8875Z" fill="white"/>
<path d="M253.189 90.3902L246.715 85.0322L248.195 79.0784L266.692 71.9336L279.271 72.7274L284.266 77.2922L284.636 78.4826L253.189 90.3902Z" fill="white"/>
<path d="M232.102 80.071L246.715 79.4752L254.631 76.5927L266.974 71.9338L269.282 68.362L263.523 67.2559L232.102 80.071Z" fill="white"/>
<path d="M261.216 73.684L253.597 76.5527L253.842 77.3016L261.461 74.4328L261.216 73.684Z" fill="#CCCCCC"/>
<path d="M160.854 27.2661L157.282 46.4274L173.952 59.8408L181.692 34.9305L160.854 27.2661Z" fill="#9F616A"/>
<path d="M174.25 44.8303C183.128 44.8303 190.324 37.1093 190.324 27.5848C190.324 18.0604 183.128 10.3394 174.25 10.3394C165.372 10.3394 158.176 18.0604 158.176 27.5848C158.176 37.1093 165.372 44.8303 174.25 44.8303Z" fill="#9F616A"/>
<path d="M139.422 158.251C139.496 163.815 162.083 225.738 158.947 233.801C154.003 239.223 143.37 268.079 138.827 275.777C138.232 275.776 135.255 285.357 135.255 285.357C135.255 285.357 142.399 297.493 150.138 292.383C159.87 267.827 184.242 254.131 184.673 222.126C185.849 232.236 189.322 297.133 189.322 297.133C189.322 297.133 188.656 297.437 203.649 298.978C205.977 261.312 215.49 197.232 194.193 156.973C187.645 153.78 139.422 158.251 139.422 158.251Z" fill="black" fill-opacity="0.5"/>
<path d="M189.321 295.87C188.625 297.306 183.633 310.561 188.176 311.89C193.414 313.422 198.492 311.275 198.492 311.275C198.492 311.275 207.661 314.349 213.273 310.442C215.892 307.632 215.297 305.077 214.047 303.225C213.412 302.313 212.599 301.56 211.665 301.02C210.73 300.48 209.697 300.165 208.638 300.097C205.79 299.879 204.886 299.313 204.559 297.913C204.083 295.87 189.321 295.87 189.321 295.87Z" fill="#E6E6E6"/>
<path d="M140.335 284.295C140.335 284.295 127.539 288.63 130.233 293.688C131.982 296.822 134.537 299.35 137.591 300.967C137.591 300.967 140.259 312.77 147.667 312.77C151.371 312.77 152.634 310.512 152.971 308.254C153.123 307.127 153.044 305.978 152.74 304.887C152.435 303.797 151.912 302.79 151.208 301.939C149.337 299.624 149.071 298.538 149.763 297.3C150.773 295.494 140.335 284.295 140.335 284.295Z" fill="#E6E6E6"/>
<path d="M197.173 160.121C197.173 160.121 194.789 165.231 185.264 163.313C175.739 161.4 138.234 163.313 138.234 163.313C138.234 163.313 140.315 117.646 135.552 90.1798C130.789 62.7135 149.542 47.065 149.542 47.065L155.496 40.6765C161.451 40.0432 174.025 59.8666 174.025 59.8666C178.163 60.6106 182.026 79.481 185.321 97.3369C185.516 98.3576 185.7 99.366 185.883 100.374C187.402 108.7 189.516 117.966 190.783 126.285C190.875 126.875 190.961 127.459 191.041 128.044C192.547 138.847 194.594 149.555 197.173 160.121V160.121Z" fill="#E6E6E6"/>
<path d="M155.445 16.8471C155.445 16.8471 152.44 9.75356 160.253 6.52924C160.253 6.52924 166.865 -5.07831 180.089 2.66007C180.089 2.66007 189.105 6.52924 189.105 16.8471C189.105 27.1649 192.11 29.0995 192.11 29.0995C192.11 29.0995 187.635 24.1735 186.432 20.3043C185.23 16.4352 175.881 15.5573 172.275 19.4265C168.668 23.2957 159.652 22.6508 159.652 22.6508L160.253 36.8378C160.253 36.8378 157.248 28.4546 156.046 28.4546C154.844 28.4546 153.642 16.8471 155.445 16.8471Z" fill="#2F2E41"/>
<path opacity="0.2" d="M190.783 126.285C176.581 118.003 153.576 99.8393 146.154 90.0137C136.371 77.0706 147.043 67.2327 147.043 67.2327C159.141 59.0426 173.607 87.1422 173.607 87.1422L185.321 97.3368C185.516 98.3575 185.699 99.3659 185.883 100.374C187.402 108.7 189.516 117.966 190.783 126.285Z" fill="black"/>
<path d="M233.178 116.741C233.178 116.741 254.291 125.936 257.766 115.599C261.241 105.262 241.097 105.439 241.097 105.439L233.188 106.641L233.178 116.741Z" fill="#9F616A"/>
<path d="M144.337 63.0262C144.337 63.0262 133.67 72.8699 143.446 85.8086C153.222 98.7474 198.151 126.393 198.151 126.393L227.416 117.905L235.698 119.531L237.259 102.849L225.058 104.127L194.087 97.0518L174.337 79.8593C174.337 79.8593 156.432 54.8405 144.337 63.0262Z" fill="#E6E6E6"/>
<path opacity="0.2" d="M183.194 181.61L185.06 228.39L180.328 181.61H183.194Z" fill="black" fill-opacity="0.5"/>
<path d="M384.663 148.146L367.723 152.358C366.413 152.683 365.036 152.448 363.884 151.702C362.733 150.956 361.898 149.757 361.557 148.361V148.361C361.36 147.551 361.335 146.704 361.486 145.883C361.637 145.062 361.96 144.288 362.429 143.62C362.898 142.951 363.503 142.406 364.197 142.023C364.891 141.641 365.657 141.433 366.436 141.413L382.8 141.005L384.663 148.146Z" fill="#FFB9B9"/>
<path d="M382.865 150.814L379.103 138.704L401.658 130.439L395.671 73.8794C406.449 75.9818 411.579 85.0748 411.098 96.8165L414.016 135.411L382.865 150.814Z" fill="white"/>
<path d="M398.449 61.4093H435.299V41.7485C435.312 36.4386 433.373 31.3374 429.902 27.552C428.207 25.6871 426.181 24.2057 423.943 23.1955C421.705 22.1853 419.301 21.6667 416.873 21.6704C412.024 21.68 407.374 23.7366 403.927 27.3956C400.481 31.0545 398.515 36.0217 398.455 41.2233C398.452 41.4034 398.449 41.5745 398.449 41.7485L398.449 61.4093Z" fill="#2F2E41"/>
<path d="M450.707 292.451L438.927 291.001L424.83 188.863L395.671 291.415L382.926 291.83L397.409 165.659L395.285 136.861L431.396 124.638C456.972 143.793 456.443 211.45 450.707 292.451Z" fill="black" fill-opacity="0.5"/>
<path d="M413.63 57.5123C421.309 57.5123 427.534 50.8338 427.534 42.5955C427.534 34.3572 421.309 27.6787 413.63 27.6787C405.951 27.6787 399.727 34.3572 399.727 42.5955C399.727 50.8338 405.951 57.5123 413.63 57.5123Z" fill="#FFB9B9"/>
<path d="M427.534 69.5286L403.975 76.1583C407.944 67.9687 409.214 60.3238 407.064 53.3688L423.672 50.4683C422.604 57.1187 423.989 63.9538 427.534 69.5286V69.5286Z" fill="#FFB9B9"/>
<path d="M435.452 130.232C422.238 139.247 406.846 149.604 395.479 139.555L390.072 111.378C385.774 107.272 387.68 94.5997 393.489 76.5372C393.858 75.3906 394.466 74.3493 395.266 73.4921C396.066 72.6348 397.037 71.9842 398.106 71.5896L407.065 68.2855C411.035 71.8678 417.544 69.7312 425.217 64.9707L434.1 67.4568L437.962 98.5335C432.387 107.495 433.361 119.428 435.452 130.232Z" fill="white"/>
<path d="M424.444 142.345L407.504 146.556C406.193 146.882 404.816 146.647 403.665 145.901C402.513 145.154 401.678 143.956 401.338 142.56C401.14 141.75 401.116 140.903 401.267 140.082C401.418 139.261 401.74 138.487 402.209 137.818C402.679 137.15 403.283 136.604 403.977 136.222C404.671 135.84 405.437 135.631 406.217 135.612L422.58 135.204L424.444 142.345Z" fill="#FFB9B9"/>
<path d="M448.659 311.979C446.681 312.948 445.024 306.944 443.355 308.703C438.687 313.625 427.489 312.521 427.489 312.521C427.113 312.392 426.765 312.182 426.467 311.904C426.169 311.626 425.927 311.286 425.755 310.904C425.583 310.523 425.485 310.108 425.467 309.685C425.449 309.261 425.511 308.839 425.65 308.442V308.442C425.816 307.967 426.087 307.543 426.439 307.205C426.792 306.868 427.216 306.627 427.674 306.504L432.638 305.173L440.433 290.466L448.928 289.312L449.142 289.689C450.785 292.529 451.843 295.711 452.248 299.025C452.653 302.338 452.394 305.706 451.49 308.904C450.783 311.332 449.822 311.41 448.659 311.979Z" fill="white"/>
<path d="M392.658 311.979C390.68 312.948 389.022 306.944 387.354 308.703C382.686 313.625 371.488 312.521 371.488 312.521C371.112 312.392 370.764 312.182 370.466 311.904C370.168 311.626 369.926 311.286 369.754 310.904C369.582 310.523 369.484 310.108 369.466 309.685C369.448 309.261 369.51 308.839 369.649 308.442V308.442C369.815 307.967 370.086 307.543 370.438 307.205C370.791 306.868 371.215 306.627 371.673 306.504L376.637 305.173L384.432 290.466L392.927 289.312L393.141 289.689C394.783 292.529 395.842 295.711 396.247 299.025C396.652 302.338 396.393 305.706 395.488 308.904C394.782 311.332 393.82 311.41 392.658 311.979Z" fill="white"/>
<path d="M429.929 30.1534L426.428 42.1062L396.152 41.529C396.256 37.347 397.574 33.304 399.924 29.965C402.273 26.626 405.535 24.1576 409.256 22.9046C412.976 21.6517 416.968 21.6767 420.675 22.9763C424.381 24.2759 427.617 26.7851 429.93 30.1534H429.929Z" fill="#2F2E41"/>
<path d="M422.645 145.012L418.883 132.903L441.438 124.638L432.906 66.8525C438.118 67.8692 442.81 70.877 446.114 75.3192C449.419 79.7614 451.111 85.3374 450.879 91.0153L453.797 129.61L422.645 145.012Z" fill="white"/>
<path d="M463.27 311.846H115.908V313.076H463.27V311.846Z" fill="white"/>
</g>
<defs>
<clipPath id="clip0">
<rect width="571" height="314" fill="white"/>
</clipPath>
</defs>
</svg>
