<svg width="372" height="512" viewBox="0 0 372 512" fill="none" xmlns="http://www.w3.org/2000/svg">
<path d="M186 0C83.7552 0 0.573242 83.182 0.573242 185.426C0.573242 312.314 166.512 498.593 173.577 506.461C180.213 513.852 191.799 513.839 198.423 506.461C205.488 498.593 371.427 312.314 371.427 185.426C371.425 83.182 288.244 0 186 0ZM186 278.719C134.558 278.719 92.7082 236.868 92.7082 185.426C92.7082 133.984 134.559 92.134 186 92.134C237.441 92.134 279.291 133.985 279.291 185.427C279.291 236.869 237.441 278.719 186 278.719Z" fill="white"/>
</svg>
