<svg width="512" height="384" viewBox="0 0 512 384" fill="none" xmlns="http://www.w3.org/2000/svg">
<path d="M394.667 149.333C329.969 149.333 277.334 201.968 277.334 266.666C277.334 331.364 329.969 384 394.667 384C415.292 384 435.573 378.573 453.344 368.292C458.438 365.344 460.188 358.823 457.229 353.719C454.281 348.615 447.75 346.854 442.656 349.834C428.135 358.23 411.541 362.667 394.666 362.667C341.728 362.667 298.666 319.604 298.666 266.667C298.666 213.73 341.729 170.667 394.666 170.667C447.603 170.667 490.666 213.73 490.666 266.667V277.334C490.666 289.094 481.093 298.667 469.333 298.667C457.573 298.667 448 289.094 448 277.334V234.667C448 228.771 443.229 224 437.333 224C434.464 224 431.886 225.161 429.971 227C420.543 218.599 408.257 213.333 394.666 213.333C365.26 213.333 341.333 237.26 341.333 266.666C341.333 296.072 365.26 320 394.667 320C410.563 320 424.697 312.869 434.477 301.798C442.204 312.775 454.917 320 469.334 320C492.865 320 512 300.865 512 277.333V266.666C512 201.969 459.365 149.333 394.667 149.333ZM394.667 298.667C377.021 298.667 362.667 284.313 362.667 266.667C362.667 249.021 377.021 234.667 394.667 234.667C412.313 234.667 426.667 249.021 426.667 266.667C426.667 284.313 412.313 298.667 394.667 298.667Z" fill="white"/>
<path d="M17.6981 24.688L193.417 167.646C194 168.125 194.636 168.542 195.302 168.875C197.646 170.073 200.125 170.677 202.687 170.677C205.395 170.677 208.104 169.969 212.062 167.573L387.646 24.698C390.25 22.583 391.698 19.375 391.573 16.031C391.448 12.687 389.76 9.593 387.01 7.677C379.813 2.656 371.385 0 362.667 0H42.6671C33.9481 0 25.5321 2.646 18.3341 7.667C15.5841 9.573 13.8961 12.667 13.7711 16.021C13.6461 19.365 15.0941 22.573 17.6981 24.688Z" fill="white"/>
<path d="M256 266.667C256 190.208 318.208 128 394.667 128C400.563 128 405.334 123.229 405.334 117.333V60.2398C405.334 56.1248 402.969 52.3748 399.251 50.6048C395.532 48.8758 391.136 49.3858 387.938 51.9698L224.281 185.146L222.406 186.386C210.104 193.938 194.989 194.324 181.104 185.157L17.396 51.9578C14.219 49.3638 9.823 48.8428 6.083 50.5928C2.365 52.3648 0 56.1148 0 60.2288V256C0 279.531 19.135 298.667 42.667 298.667H247.032C250.126 298.667 253.063 297.323 255.095 294.99C257.116 292.657 258.033 289.552 257.595 286.49C256.51 278.906 256 272.604 256 266.667Z" fill="white"/>
</svg>
