<svg width="70" height="70" viewBox="0 0 70 70" fill="none" xmlns="http://www.w3.org/2000/svg">
<g clip-path="url(#clip0)">
<path d="M20.3278 70.9999C9.90965 70.9399 1.29199 49.673 1.29199 38.8423C1.29199 21.1503 14.564 17.2771 19.6789 17.2771C21.984 17.2771 24.4453 18.1823 26.6163 18.9833C28.1344 19.5421 29.7045 20.1189 30.5777 20.1189C31.1004 20.1189 32.3321 19.6282 33.4195 19.1977C35.7387 18.2744 38.6246 17.127 41.9851 17.127C41.9911 17.127 41.9992 17.127 42.0051 17.127C44.5144 17.127 52.1228 17.6777 56.697 24.547L57.7685 26.1571L56.2264 27.3207C54.0235 28.9829 50.0039 32.0151 50.0039 38.0213C50.0039 45.1349 54.5561 47.8706 56.7431 49.1864C57.7084 49.7672 58.7077 50.366 58.7077 51.6758C58.7077 52.531 51.8824 70.8938 41.971 70.8938C39.5458 70.8938 37.8314 70.1648 36.3193 69.522C34.7893 68.871 33.4694 68.3104 31.2885 68.3104C30.183 68.3104 28.785 68.833 27.3051 69.3878C25.2826 70.1427 22.9934 70.9999 20.3958 70.9999H20.3278Z" fill="white"/>
<path d="M43.0351 1C43.2932 10.3073 36.6371 16.7642 29.9887 16.3593C28.8932 8.93174 36.6362 1 43.0351 1Z" fill="white"/>
</g>
<defs>
<clipPath id="clip0">
<rect width="70" height="70" fill="white"/>
</clipPath>
</defs>
</svg>
